<svg width="22" height="18" viewBox="0 0 22 18" fill="none" xmlns="http://www.w3.org/2000/svg">
<path d="M18.4629 2.57598C17.7749 1.82598 16.5339 1.77998 15.7069 2.60698L7.60694 10.707C7.39694 10.917 7.39694 11.183 7.60694 11.393C7.81694 11.603 8.08294 11.603 8.29294 11.393L14.9929 4.69298C15.1815 4.51082 15.4341 4.41003 15.6963 4.41231C15.9585 4.41459 16.2094 4.51976 16.3948 4.70516C16.5802 4.89057 16.6853 5.14139 16.6876 5.40358C16.6899 5.66578 16.5891 5.91838 16.4069 6.10698L9.70694 12.807C9.4786 13.0419 9.20546 13.2287 8.90367 13.3563C8.60188 13.4838 8.27757 13.5495 7.94994 13.5495C7.62231 13.5495 7.298 13.4838 6.99621 13.3563C6.69442 13.2287 6.42128 13.0419 6.19294 12.807C5.95798 12.5786 5.7712 12.3055 5.64366 12.0037C5.51612 11.7019 5.45041 11.3776 5.45041 11.05C5.45041 10.7223 5.51612 10.398 5.64366 10.0963C5.7712 9.79446 5.95798 9.52132 6.19294 9.29298L14.2929 1.19298C15.8599 -0.375017 18.4079 -0.426017 19.9229 1.20798C21.4749 2.77698 21.5199 5.31198 19.8929 6.82098L10.4069 16.307C8.21694 18.497 4.78294 18.497 2.59294 16.307C0.402939 14.117 0.402939 10.683 2.59294 8.49298L10.6929 0.392983C10.8815 0.210825 11.1341 0.11003 11.3963 0.112309C11.6585 0.114587 11.9093 0.219756 12.0948 0.405164C12.2802 0.590572 12.3853 0.841385 12.3876 1.10358C12.3899 1.36578 12.2891 1.61838 12.1069 1.80698L4.00694 9.90698C2.59694 11.317 2.59694 13.483 4.00694 14.893C5.41694 16.303 7.58294 16.303 8.99294 14.893L18.4929 5.39298L18.5239 5.36298C19.2739 4.67598 19.3199 3.43398 18.4929 2.60698C18.4827 2.59685 18.4727 2.58652 18.4629 2.57598Z" fill="#6B7C85"/>
</svg>
